<svg width="429" height="50" viewBox="0 0 429 50" fill="none" xmlns="http://www.w3.org/2000/svg">
<path d="M15.9375 49.6562C13.1667 49.6562 10.5 49.25 7.9375 48.4375C5.375 47.625 2.92708 46.375 0.59375 44.6875V34.9688H5.375L6.40625 42.125C7.76042 42.9583 9.22917 43.6042 10.8125 44.0625C12.3958 44.5208 14.1042 44.75 15.9375 44.75C18.0208 44.75 19.7812 44.4375 21.2188 43.8125C22.6771 43.1667 23.7917 42.2812 24.5625 41.1562C25.3333 40.0312 25.7188 38.7188 25.7188 37.2188C25.7188 35.8229 25.3854 34.5938 24.7188 33.5312C24.0521 32.4688 22.9479 31.5417 21.4062 30.75C19.8854 29.9375 17.8021 29.2292 15.1562 28.625C12.0312 27.8958 9.38542 26.9271 7.21875 25.7188C5.07292 24.4896 3.4375 23.0104 2.3125 21.2812C1.20833 19.5312 0.65625 17.5312 0.65625 15.2812C0.65625 12.9062 1.28125 10.7812 2.53125 8.90625C3.80208 7.03125 5.5625 5.55208 7.8125 4.46875C10.0625 3.38542 12.6875 2.84375 15.6875 2.84375C18.875 2.84375 21.6875 3.33333 24.125 4.3125C26.5833 5.27083 28.6042 6.4375 30.1875 7.8125V16.9062H25.4062L24.375 10.4062C23.4375 9.65625 22.2708 9.03125 20.875 8.53125C19.4792 8.03125 17.75 7.78125 15.6875 7.78125C13.9375 7.78125 12.3958 8.09375 11.0625 8.71875C9.72917 9.32292 8.6875 10.1771 7.9375 11.2812C7.1875 12.3854 6.8125 13.6875 6.8125 15.1875C6.8125 16.5 7.14583 17.6458 7.8125 18.625C8.5 19.6042 9.60417 20.4688 11.125 21.2188C12.6667 21.9479 14.7188 22.6354 17.2812 23.2812C22.0729 24.4688 25.6979 26.2292 28.1562 28.5625C30.6354 30.875 31.875 33.7396 31.875 37.1562C31.875 39.5938 31.2188 41.7604 29.9062 43.6562C28.5938 45.5312 26.7396 47 24.3438 48.0625C21.9688 49.125 19.1667 49.6562 15.9375 49.6562Z" fill="#EB67D6"/>
<path d="M52.2812 49.6562C49.1562 49.6562 46.4583 48.9271 44.1875 47.4688C41.9375 45.9896 40.1979 43.9583 38.9688 41.375C37.7396 38.7708 37.125 35.8021 37.125 32.4688V31.7812C37.125 28.4479 37.7396 25.4896 38.9688 22.9062C40.1979 20.3021 41.9375 18.2604 44.1875 16.7812C46.4583 15.3021 49.1354 14.5625 52.2188 14.5625C55.3438 14.5625 58.0312 15.3021 60.2812 16.7812C62.5521 18.2604 64.3021 20.2917 65.5312 22.875C66.7604 25.4583 67.375 28.4271 67.375 31.7812V32.4688C67.375 35.8229 66.7604 38.8021 65.5312 41.4062C64.3021 43.9896 62.5625 46.0104 60.3125 47.4688C58.0625 48.9271 55.3854 49.6562 52.2812 49.6562ZM52.2812 44.8438C54.2396 44.8438 55.875 44.3125 57.1875 43.25C58.5208 42.1667 59.5208 40.6979 60.1875 38.8438C60.875 36.9688 61.2188 34.8438 61.2188 32.4688V31.7812C61.2188 29.4062 60.875 27.2917 60.1875 25.4375C59.5208 23.5625 58.5208 22.0938 57.1875 21.0312C55.8542 19.9479 54.1979 19.4062 52.2188 19.4062C50.2604 19.4062 48.6146 19.9479 47.2812 21.0312C45.9479 22.0938 44.9479 23.5625 44.2812 25.4375C43.6146 27.2917 43.2812 29.4062 43.2812 31.7812V32.4688C43.2812 34.8438 43.6146 36.9688 44.2812 38.8438C44.9479 40.6979 45.9479 42.1667 47.2812 43.25C48.6354 44.3125 50.3021 44.8438 52.2812 44.8438ZM88.5312 49.6562C85.4688 49.6562 82.8021 48.9479 80.5312 47.5312C78.2604 46.0938 76.5 44.1042 75.25 41.5625C74 39.0208 73.375 36.0833 73.375 32.75V31.4375C73.375 28.2292 73.9792 25.3542 75.1875 22.8125C76.3958 20.2708 78.1354 18.2604 80.4062 16.7812C82.6771 15.3021 85.3854 14.5625 88.5312 14.5625C91.2604 14.5625 93.6458 15.0104 95.6875 15.9062C97.75 16.8021 99.4792 18.0312 100.875 19.5938L101.031 27.7188H96.2188L95.1562 21.8125C94.4479 21.0833 93.5625 20.5 92.5 20.0625C91.4375 19.625 90.1875 19.4062 88.75 19.4062C86.9167 19.4062 85.3021 19.9479 83.9062 21.0312C82.5312 22.1146 81.4583 23.5625 80.6875 25.375C79.9167 27.1875 79.5312 29.2083 79.5312 31.4375V32.75C79.5312 35.2083 79.8854 37.3438 80.5938 39.1562C81.3229 40.9688 82.3542 42.375 83.6875 43.375C85.0417 44.3542 86.6458 44.8438 88.5 44.8438C90.5833 44.8438 92.3125 44.2708 93.6875 43.125C95.0625 41.9792 95.9062 40.4062 96.2188 38.4062H101.75L101.812 38.5938C101.708 40.5312 101.135 42.3438 100.094 44.0312C99.0521 45.7188 97.5625 47.0833 95.625 48.125C93.7083 49.1458 91.3438 49.6562 88.5312 49.6562ZM106.406 49V45.0625L111.5 44.1875V20.0312L106.406 19.1562V15.1875H117.656V44.1875L122.75 45.0625V49H106.406ZM111.188 6.84375V0.25H117.656V6.84375H111.188ZM137.938 49.6562C134.417 49.6562 131.74 48.8021 129.906 47.0938C128.073 45.3646 127.156 42.9375 127.156 39.8125C127.156 37.6667 127.74 35.8021 128.906 34.2188C130.094 32.6146 131.802 31.375 134.031 30.5C136.26 29.6042 138.927 29.1562 142.031 29.1562H148.062V25.8438C148.062 23.8021 147.438 22.2188 146.188 21.0938C144.958 19.9688 143.219 19.4062 140.969 19.4062C139.552 19.4062 138.323 19.5833 137.281 19.9375C136.24 20.2708 135.292 20.7396 134.438 21.3438L133.781 26.0625H129.031V18.3125C130.552 17.0833 132.323 16.1562 134.344 15.5312C136.365 14.8854 138.604 14.5625 141.062 14.5625C145.167 14.5625 148.385 15.5417 150.719 17.5C153.052 19.4583 154.219 22.2604 154.219 25.9062V42.1875C154.219 42.625 154.219 43.0521 154.219 43.4688C154.24 43.8854 154.271 44.3021 154.312 44.7188L157.594 45.0625V49H148.75C148.562 48.0833 148.417 47.2604 148.312 46.5312C148.208 45.8021 148.135 45.0729 148.094 44.3438C146.906 45.8646 145.417 47.1354 143.625 48.1562C141.854 49.1562 139.958 49.6562 137.938 49.6562ZM138.844 44.5C140.885 44.5 142.75 44.0104 144.438 43.0312C146.125 42.0521 147.333 40.875 148.062 39.5V33.375H141.812C138.979 33.375 136.854 34.0521 135.438 35.4062C134.021 36.7604 133.312 38.2708 133.312 39.9375C133.312 41.4167 133.771 42.5521 134.688 43.3438C135.604 44.1146 136.99 44.5 138.844 44.5ZM162.062 49V45.0625L167.156 44.1875V5.09375L162.062 4.21875V0.25H173.312V44.1875L178.406 45.0625V49H162.062ZM238.406 49.6562C235.281 49.6562 232.583 48.9271 230.312 47.4688C228.062 45.9896 226.323 43.9583 225.094 41.375C223.865 38.7708 223.25 35.8021 223.25 32.4688V31.7812C223.25 28.4479 223.865 25.4896 225.094 22.9062C226.323 20.3021 228.062 18.2604 230.312 16.7812C232.583 15.3021 235.26 14.5625 238.344 14.5625C241.469 14.5625 244.156 15.3021 246.406 16.7812C248.677 18.2604 250.427 20.2917 251.656 22.875C252.885 25.4583 253.5 28.4271 253.5 31.7812V32.4688C253.5 35.8229 252.885 38.8021 251.656 41.4062C250.427 43.9896 248.688 46.0104 246.438 47.4688C244.188 48.9271 241.51 49.6562 238.406 49.6562ZM238.406 44.8438C240.365 44.8438 242 44.3125 243.312 43.25C244.646 42.1667 245.646 40.6979 246.312 38.8438C247 36.9688 247.344 34.8438 247.344 32.4688V31.7812C247.344 29.4062 247 27.2917 246.312 25.4375C245.646 23.5625 244.646 22.0938 243.312 21.0312C241.979 19.9479 240.323 19.4062 238.344 19.4062C236.385 19.4062 234.74 19.9479 233.406 21.0312C232.073 22.0938 231.073 23.5625 230.406 25.4375C229.74 27.2917 229.406 29.4062 229.406 31.7812V32.4688C229.406 34.8438 229.74 36.9688 230.406 38.8438C231.073 40.6979 232.073 42.1667 233.406 43.25C234.76 44.3125 236.427 44.8438 238.406 44.8438ZM258.25 49V45.0625L263.344 44.1875V20.0312L258.25 19.1562V15.1875H268.844L269.281 20.2188C270.406 18.4271 271.812 17.0417 273.5 16.0625C275.208 15.0625 277.146 14.5625 279.312 14.5625C282.958 14.5625 285.781 15.6354 287.781 17.7812C289.781 19.9062 290.781 23.1979 290.781 27.6562V44.1875L295.875 45.0625V49H279.531V45.0625L284.625 44.1875V27.7812C284.625 24.8021 284.031 22.6875 282.844 21.4375C281.677 20.1875 279.885 19.5625 277.469 19.5625C275.698 19.5625 274.125 19.9896 272.75 20.8438C271.396 21.6979 270.312 22.8646 269.5 24.3438V44.1875L274.594 45.0625V49H258.25ZM300.25 49V45.0625L305.344 44.1875V20.0312L300.25 19.1562V15.1875H310.844L311.281 20.2188C312.406 18.4271 313.812 17.0417 315.5 16.0625C317.208 15.0625 319.146 14.5625 321.312 14.5625C324.958 14.5625 327.781 15.6354 329.781 17.7812C331.781 19.9062 332.781 23.1979 332.781 27.6562V44.1875L337.875 45.0625V49H321.531V45.0625L326.625 44.1875V27.7812C326.625 24.8021 326.031 22.6875 324.844 21.4375C323.677 20.1875 321.885 19.5625 319.469 19.5625C317.698 19.5625 316.125 19.9896 314.75 20.8438C313.396 21.6979 312.312 22.8646 311.5 24.3438V44.1875L316.594 45.0625V49H300.25ZM357.156 49.6562C354.031 49.6562 351.312 48.9479 349 47.5312C346.688 46.0938 344.896 44.1042 343.625 41.5625C342.375 39.0208 341.75 36.0833 341.75 32.75V31.375C341.75 28.1667 342.406 25.3021 343.719 22.7812C345.052 20.2396 346.812 18.2396 349 16.7812C351.208 15.3021 353.615 14.5625 356.219 14.5625C359.26 14.5625 361.802 15.1875 363.844 16.4375C365.906 17.6875 367.458 19.4479 368.5 21.7188C369.542 23.9688 370.062 26.625 370.062 29.6875V33.5312H348.125L348.031 33.6875C348.073 35.8542 348.448 37.7812 349.156 39.4688C349.885 41.1354 350.927 42.4479 352.281 43.4062C353.635 44.3646 355.26 44.8438 357.156 44.8438C359.24 44.8438 361.062 44.5521 362.625 43.9688C364.208 43.3646 365.573 42.5417 366.719 41.5L369.125 45.5C367.917 46.6667 366.312 47.6562 364.312 48.4688C362.333 49.2604 359.948 49.6562 357.156 49.6562ZM348.312 28.7188H363.906V27.9062C363.906 26.2812 363.615 24.8333 363.031 23.5625C362.469 22.2708 361.615 21.2604 360.469 20.5312C359.344 19.7812 357.927 19.4062 356.219 19.4062C354.844 19.4062 353.594 19.8125 352.469 20.625C351.344 21.4167 350.417 22.5 349.688 23.875C348.958 25.25 348.479 26.8125 348.25 28.5625L348.312 28.7188ZM391.406 49.6562C388.344 49.6562 385.677 48.9479 383.406 47.5312C381.135 46.0938 379.375 44.1042 378.125 41.5625C376.875 39.0208 376.25 36.0833 376.25 32.75V31.4375C376.25 28.2292 376.854 25.3542 378.062 22.8125C379.271 20.2708 381.01 18.2604 383.281 16.7812C385.552 15.3021 388.26 14.5625 391.406 14.5625C394.135 14.5625 396.521 15.0104 398.562 15.9062C400.625 16.8021 402.354 18.0312 403.75 19.5938L403.906 27.7188H399.094L398.031 21.8125C397.323 21.0833 396.438 20.5 395.375 20.0625C394.312 19.625 393.062 19.4062 391.625 19.4062C389.792 19.4062 388.177 19.9479 386.781 21.0312C385.406 22.1146 384.333 23.5625 383.562 25.375C382.792 27.1875 382.406 29.2083 382.406 31.4375V32.75C382.406 35.2083 382.76 37.3438 383.469 39.1562C384.198 40.9688 385.229 42.375 386.562 43.375C387.917 44.3542 389.521 44.8438 391.375 44.8438C393.458 44.8438 395.188 44.2708 396.562 43.125C397.938 41.9792 398.781 40.4062 399.094 38.4062H404.625L404.688 38.5938C404.583 40.5312 404.01 42.3438 402.969 44.0312C401.927 45.7188 400.438 47.0833 398.5 48.125C396.583 49.1458 394.219 49.6562 391.406 49.6562ZM421.438 49.5312C418.938 49.5312 416.948 48.8021 415.469 47.3438C414.01 45.8646 413.281 43.5104 413.281 40.2812V19.75H407.938V15.1875H413.281V7.03125H419.438V15.1875H426.781V19.75H419.438V40.2812C419.438 41.9062 419.76 43.1042 420.406 43.875C421.052 44.6458 421.917 45.0312 423 45.0312C423.729 45.0312 424.542 44.9688 425.438 44.8438C426.333 44.6979 427.031 44.5729 427.531 44.4688L428.375 48.5C427.479 48.7708 426.375 49.0104 425.062 49.2188C423.771 49.4271 422.562 49.5312 421.438 49.5312Z" fill="white"/>
<path d="M203.594 49.6562C199.031 49.6562 195.219 48.6562 192.156 46.6562C189.115 44.6562 186.823 41.9167 185.281 38.4375C183.76 34.9583 183 31.0104 183 26.5938V25.9375C183 21.4792 183.802 17.5208 185.406 14.0625C187.01 10.5833 189.312 7.84375 192.312 5.84375C195.312 3.84375 198.896 2.84375 203.062 2.84375C206 2.84375 208.688 3.30208 211.125 4.21875C213.562 5.13542 215.583 6.30208 217.188 7.71875V17.5312H212.281L211.625 10.3438C210.958 9.82292 210.188 9.38542 209.312 9.03125C208.458 8.67708 207.5 8.40625 206.438 8.21875C205.396 8.03125 204.26 7.9375 203.031 7.9375C200.052 7.9375 197.531 8.70833 195.469 10.25C193.406 11.7708 191.844 13.875 190.781 16.5625C189.719 19.25 189.188 22.3542 189.188 25.875V26.5938C189.188 30.4062 189.75 33.6667 190.875 36.375C192.021 39.0625 193.677 41.1146 195.844 42.5312C198.031 43.9479 200.688 44.6562 203.812 44.6562C205.271 44.6562 206.698 44.4792 208.094 44.125C209.49 43.7708 210.646 43.3125 211.562 42.75L212.25 36.4062H217.062V46.2812C215.354 47.3438 213.312 48.1771 210.938 48.7812C208.562 49.3646 206.115 49.6562 203.594 49.6562Z" fill="#B311FF"/>
</svg>
